<?xml version="1.0" encoding="UTF-8"?>
<svg id="Layer_2" data-name="Layer 2" xmlns="http://www.w3.org/2000/svg" viewBox="0 0 279.87 70.79">
  <defs>
    <style>
      .cls-1 {
        fill: #eaaa00;
      }

      .cls-1, .cls-2 {
        stroke-width: 0px;
      }

      .cls-2 {
        fill: #fff;
      }
    </style>
  </defs>
  <g id="Layer_1-2" data-name="Layer 1">
    <g>
      <g>
        <path class="cls-2" d="M13.04,6.12c0,3.64-2.75,6.3-6.56,6.3S0,9.76,0,6.12,2.84,0,6.48,0s6.56,2.57,6.56,6.12ZM1.51,22h10.02v48.79H1.51V22Z"/>
        <path class="cls-2" d="M61.92,61.3v9.49H20.76v-9.49l27.85-29.81h-26.26v-9.49h39.12v9.49l-27.94,29.81h28.39Z"/>
        <path class="cls-2" d="M82.78,6.12c0,3.64-2.75,6.3-6.57,6.3s-6.47-2.66-6.47-6.3,2.84-6.12,6.47-6.12c3.82,0,6.57,2.57,6.57,6.12ZM71.24,22h10.02v48.79h-10.02V22Z"/>
      </g>
      <path class="cls-1" d="M109.14,66.29c0-3.07,3.57-11.28,9.49-21.7-2.43-.07-4.5-.14-5.71-.14.57-1.43,3.35-2.43,7.71-3.21,7.49-12.42,17.13-22.84,24.91-27.05.07-.64.14-1.14.14-1.36,2.64,0,9.85,3.14,10.21,4.42-3.14,5.5-6.42,16.91-8.42,32.12-.5,3.78-.86,8.64-.86,14.63,0,2.07,0,4.28.14,6.64-.21.07-.29.07-.86.07-2.64,0-7.64-1.93-8.14-3.14-.07-1.21-.07-2.43-.07-3.71,0-5.85.43-11.99,1.43-18.41-2.64-.21-9.21-.5-15.2-.71-2.28,4.21-4.35,8.56-5.78,12.77-1.57,4.49-2.64,9.28-2.92,13.27-4.57-1.36-6.07-2.5-6.07-4.5ZM144.18,21.48c-4.78,1.78-11.85,9.49-17.77,19.05,4-.36,8.56-.57,13.63-.64.72-3.92,1.64-7.92,2.71-11.99.36-1.36.93-3.85,1.43-6.42Z"/>
      <path class="cls-1" d="M174.81,31.54c4.93,0,7.71,2.57,7.71,7.14s-2.71,8.64-5.42,8.64c-1.14,0-2.43-.78-3.21-1.93,3.21-2.92,4.78-5.57,4.78-7.92,0-1.36-.57-2.07-1.64-2.07-1.86,0-5.07,2-7.71,4.92-4.07,4.57-6.28,10.28-6.28,16.34,0,3.85.86,6.14,2.57,6.92,2.78-.36,7.92-2.85,12.35-6.14.36.29.71,1,.71,1.43-3.14,3.92-8.99,7.99-12.2,8.56-6.28-.57-11.35-7.14-11.35-14.63,0-10.78,9.71-21.27,19.7-21.27Z"/>
      <path class="cls-1" d="M191.8,34.54c3.85-10.06,10.35-20.98,16.84-28.4,3,0,7.35,1.64,8.99,3.43-7.14,7.28-13.06,15.06-16.41,21.62-3.64,7.14-5.85,12.42-7.56,19.27,9.06-11.56,15.99-17.49,20.34-17.49,2.5,0,5.64,1.78,7.78,4.5-5.85,6.42-13.35,19.7-13.35,23.55,0,.93.21,1.21,1.14,1.21,1.43,0,2.28-.57,2.5-.57.43.71.5.93.5,1.14,0,.71-5.42,3.28-6.92,3.28-1.93,0-3.85-2.28-3.85-4.5,0-2.78,3.43-11.77,8.07-21.12,0-.07-.21-.29-.29-.29-.29,0-1.78.93-2.78,1.71-6.78,5.07-14.34,15.49-18.63,25.55-.29.64-1,1.36-1.36,1.36-.64,0-2.14-3.14-2.21-4.64,0-6.71,2.85-18.41,7.21-29.62Z"/>
      <path class="cls-1" d="M251.46,39.03c-3.85,7.99-6.49,16.41-6.49,21.27,0,2.64.57,4.5,1.86,5.21-1.14.71-3.21,1.28-4.64,1.28-2.57,0-3.85-1.71-3.85-5.28,0-2.64.93-6.49,2.71-11.13-3.85,8.71-10.14,15.84-14.56,16.56-3.5-.14-5.92-3.71-5.92-8.64,0-10.63,10.28-25.19,17.98-25.62,1.93.5,5.14,3.85,5.35,5.64-7.64,1.21-16.98,13.84-16.98,22.62,0,1,.36,1.5,1,1.71,2.78-.57,6.21-4.57,11.35-13.13,2-3.35,4.85-8.71,6.92-12.99,2,0,5.35,1.57,5.28,2.5Z"/>
      <path class="cls-1" d="M258.11,38.03c-.43-.57-.93-2.92-.93-4.21,2.5.14,4.78.36,6.71.43,2.86-5.64,6.99-11.78,8.56-12.63,1.93,0,6.49,1.5,7.42,2.57-2.85,3.57-4.64,6.35-6.99,10.35,1.86,0,3.85-.07,5.85-.29.43.43.78,1.21.78,2-2.28.86-5.21,1.36-8.49,1.43-4.71,9.13-7.56,18.41-7.56,24.26,0,2.14.86,3.28,2.35,3.5,2.86-.36,5.5-1.5,7.49-3.07.21.36.43.78.5,1.07-1.07,1.64-6.21,5.07-7.78,5.21-4.71-.14-10.13-4.21-10.13-7.56,0-4.64,2.64-14.27,6.28-23.05h-4.07Z"/>
    </g>
  </g>
</svg>